# xmcd
# 
# Track frame offsets:
#     180
#     14951
#     29405
#     43055
#     56770
#     70680
#     85416
#     100205
#     115673
#     129094
#     143590
#     157427
#     167463
#     180696
#     195120
#     208634
#     220946
#     232621
# 
# Disc length: 3259
# 
# Revision: 3
# Processed by: cddbd v1.5.2PL0 Copyright (c) Steve Scherf et al.
# Submitted via: fre:ac v1.0.27
# 
DISCID=f40cb912
DTITLE=Various Artist - Country - Nashville Dallas Hollywood 1927-1942 - Disc 1
DYEAR=1994
DGENRE=Country
TTITLE0=Railroad Blues - Sam Mcgee
TTITLE1=Omie Wise - G.B. Grayson
TTITLE2=Peg And Awl - Carolina Tar Hells
TTITLE3=A Lazy Farmer Boy - Buster Carter and Preston Young
TTITLE4=The Butcher's Boy - Buell Kazee
TTITLE5=My Name Is John Jo Hannah - Kelly Harrel
TTITLE6=The House Carpenter - Clarence Ashley
TTITLE7=Gonna Die With My Hammer In My Hand - The Williamson Brothers
TTITLE8=Country Blues - Dock Boggs
TTITLE9=Brownskin Blues - Dick Justice
TTITLE10=Slow Wicked Blues - Jimmie Tarlton
TTITLE11=Pan American Man - Cliff Carlisle
TTITLE12=John Hardy - The Carter Familiy
TTITLE13=Wildwood Flower - The Carter Familiy
TTITLE14=Blue Yodel N° 8 - Jimmie Rodgers
TTITLE15=All The Good Times Are Passed And Gone - The Monroe Brothers
TTITLE16=Sinner, You Better Get Ready - The Monroe Brothers
TTITLE17=Brown's Ferry Blues - The Delmore Brothers
EXTD=YEAR: 1994
EXTT0=
EXTT1=
EXTT2=
EXTT3=
EXTT4=
EXTT5=
EXTT6=
EXTT7=
EXTT8=
EXTT9=
EXTT10=
EXTT11=
EXTT12=
EXTT13=
EXTT14=
EXTT15=
EXTT16=
EXTT17=
PLAYORDER=
